<svg xmlns="http://www.w3.org/2000/svg" width="1254" height="1254" viewBox="0 0 1254 1254">
<rect width="100%" height="100%" fill="#ffffff"/>
<path d="M1226 5265 c-3 -25 -9 -101 -12 -168 -7 -123 -7 -123 -68 -160 -225 -136 -423 -414 -472 -661 -41 -209 -44 -302 -15 -476 44 -257 147 -472 320 -663 66 -74 315 -247 354 -247 7 0 17 -4 22 -9 23 -23 172 -66 295 -87 198 -32 323 -5 394 89 57 75 56 49 56 1078 0 1062 4 1009 -72 1087 -69 71 -139 87 -310 71 -60 -6 -112 -8 -115 -6 -2 3 3 43 11 89 9 47 16 90 16 96 0 9 -53 12 -199 12 -198 0 -198 0 -205 -45z" fill="#111111" opacity="0.16"/>
<g fill="none" stroke-linecap="round" stroke-linejoin="round">
<path d="M 1226.0 5265.0 C 1223.0 5240.0, 1217.0 5164.0, 1214.0 5097.0" stroke="#ef4444" stroke-width="4.5"/>
<path d="M 1214.0 5097.0 C 1207.0 4974.0, 1207.0 4974.0, 1146.0 4937.0" stroke="#f97316" stroke-width="4.5"/>
<path d="M 1146.0 4937.0 C 921.0 4801.0, 723.0 4523.0, 674.0 4276.0" stroke="#eab308" stroke-width="4.5"/>
<path d="M 674.0 4276.0 C 633.0 4067.0, 630.0 3974.0, 659.0 3800.0" stroke="#22c55e" stroke-width="4.5"/>
<path d="M 659.0 3800.0 C 703.0 3543.0, 806.0 3328.0, 979.0 3137.0" stroke="#06b6d4" stroke-width="4.5"/>
<path d="M 979.0 3137.0 C 1045.0 3063.0, 1294.0 2890.0, 1333.0 2890.0" stroke="#3b82f6" stroke-width="4.5"/>
<path d="M 1333.0 2890.0 C 1340.0 2890.0, 1350.0 2886.0, 1355.0 2881.0" stroke="#8b5cf6" stroke-width="4.5"/>
<path d="M 1355.0 2881.0 C 1378.0 2858.0, 1527.0 2815.0, 1650.0 2794.0" stroke="#ec4899" stroke-width="4.5"/>
<path d="M 1650.0 2794.0 C 1848.0 2762.0, 1973.0 2789.0, 2044.0 2883.0" stroke="#ef4444" stroke-width="4.5"/>
<path d="M 2044.0 2883.0 C 2101.0 2958.0, 2100.0 2932.0, 2100.0 3961.0" stroke="#f97316" stroke-width="4.5"/>
<path d="M 2100.0 3961.0 C 2100.0 5023.0, 2104.0 4970.0, 2028.0 5048.0" stroke="#eab308" stroke-width="4.5"/>
<path d="M 2028.0 5048.0 C 1959.0 5119.0, 1889.0 5135.0, 1718.0 5119.0" stroke="#22c55e" stroke-width="4.5"/>
<path d="M 1718.0 5119.0 C 1658.0 5113.0, 1606.0 5111.0, 1603.0 5113.0" stroke="#06b6d4" stroke-width="4.5"/>
<path d="M 1603.0 5113.0 C 1601.0 5116.0, 1606.0 5156.0, 1614.0 5202.0" stroke="#3b82f6" stroke-width="4.5"/>
<path d="M 1614.0 5202.0 C 1623.0 5249.0, 1630.0 5292.0, 1630.0 5298.0" stroke="#8b5cf6" stroke-width="4.5"/>
<path d="M 1630.0 5298.0 C 1630.0 5307.0, 1577.0 5310.0, 1431.0 5310.0" stroke="#ec4899" stroke-width="4.5"/>
<path d="M 1431.0 5310.0 C 1233.0 5310.0, 1233.0 5310.0, 1226.0 5265.0" stroke="#ef4444" stroke-width="4.5"/>
</g>
<g stroke="#64748b" stroke-width="1.2" stroke-dasharray="5 5" opacity="0.58">
<path d="M 1226.0 5265.0 L 1223.0 5240.0 M 1214.0 5097.0 L 1217.0 5164.0"/>
<path d="M 1214.0 5097.0 L 1207.0 4974.0 M 1146.0 4937.0 L 1207.0 4974.0"/>
<path d="M 1146.0 4937.0 L 921.0 4801.0 M 674.0 4276.0 L 723.0 4523.0"/>
<path d="M 674.0 4276.0 L 633.0 4067.0 M 659.0 3800.0 L 630.0 3974.0"/>
<path d="M 659.0 3800.0 L 703.0 3543.0 M 979.0 3137.0 L 806.0 3328.0"/>
<path d="M 979.0 3137.0 L 1045.0 3063.0 M 1333.0 2890.0 L 1294.0 2890.0"/>
<path d="M 1333.0 2890.0 L 1340.0 2890.0 M 1355.0 2881.0 L 1350.0 2886.0"/>
<path d="M 1355.0 2881.0 L 1378.0 2858.0 M 1650.0 2794.0 L 1527.0 2815.0"/>
<path d="M 1650.0 2794.0 L 1848.0 2762.0 M 2044.0 2883.0 L 1973.0 2789.0"/>
<path d="M 2044.0 2883.0 L 2101.0 2958.0 M 2100.0 3961.0 L 2100.0 2932.0"/>
<path d="M 2100.0 3961.0 L 2100.0 5023.0 M 2028.0 5048.0 L 2104.0 4970.0"/>
<path d="M 2028.0 5048.0 L 1959.0 5119.0 M 1718.0 5119.0 L 1889.0 5135.0"/>
<path d="M 1718.0 5119.0 L 1658.0 5113.0 M 1603.0 5113.0 L 1606.0 5111.0"/>
<path d="M 1603.0 5113.0 L 1601.0 5116.0 M 1614.0 5202.0 L 1606.0 5156.0"/>
<path d="M 1614.0 5202.0 L 1623.0 5249.0 M 1630.0 5298.0 L 1630.0 5292.0"/>
<path d="M 1630.0 5298.0 L 1630.0 5307.0 M 1431.0 5310.0 L 1577.0 5310.0"/>
<path d="M 1431.0 5310.0 L 1233.0 5310.0 M 1226.0 5265.0 L 1233.0 5310.0"/>
</g>
<g font-family="Arial, Helvetica, sans-serif">
<circle cx="1226.0" cy="5265.0" r="3.1" fill="#ffffff" stroke="#111827" stroke-width="1.5"/>
<circle cx="1223.0" cy="5240.0" r="2.4" fill="#2563eb" opacity="0.72"/>
<circle cx="1217.0" cy="5164.0" r="2.4" fill="#2563eb" opacity="0.72"/>
<text x="1220.0" y="5189.8" text-anchor="middle" font-size="10" font-weight="700" fill="#ef4444" stroke="#ffffff" stroke-width="3.5" paint-order="stroke fill">1</text>
<circle cx="1214.0" cy="5097.0" r="3.1" fill="#ffffff" stroke="#111827" stroke-width="1.5"/>
<circle cx="1207.0" cy="4974.0" r="2.4" fill="#2563eb" opacity="0.72"/>
<circle cx="1207.0" cy="4974.0" r="2.4" fill="#2563eb" opacity="0.72"/>
<text x="1200.2" y="4977.8" text-anchor="middle" font-size="10" font-weight="700" fill="#f97316" stroke="#ffffff" stroke-width="3.5" paint-order="stroke fill">2</text>
<circle cx="1146.0" cy="4937.0" r="3.1" fill="#ffffff" stroke="#111827" stroke-width="1.5"/>
<circle cx="921.0" cy="4801.0" r="2.4" fill="#2563eb" opacity="0.72"/>
<circle cx="723.0" cy="4523.0" r="2.4" fill="#2563eb" opacity="0.72"/>
<text x="844.0" y="4641.1" text-anchor="middle" font-size="10" font-weight="700" fill="#eab308" stroke="#ffffff" stroke-width="3.5" paint-order="stroke fill">3</text>
<circle cx="674.0" cy="4276.0" r="3.1" fill="#ffffff" stroke="#111827" stroke-width="1.5"/>
<circle cx="633.0" cy="4067.0" r="2.4" fill="#2563eb" opacity="0.72"/>
<circle cx="630.0" cy="3974.0" r="2.4" fill="#2563eb" opacity="0.72"/>
<text x="640.2" y="4017.9" text-anchor="middle" font-size="10" font-weight="700" fill="#22c55e" stroke="#ffffff" stroke-width="3.5" paint-order="stroke fill">4</text>
<circle cx="659.0" cy="3800.0" r="3.1" fill="#ffffff" stroke="#111827" stroke-width="1.5"/>
<circle cx="703.0" cy="3543.0" r="2.4" fill="#2563eb" opacity="0.72"/>
<circle cx="806.0" cy="3328.0" r="2.4" fill="#2563eb" opacity="0.72"/>
<text x="770.6" y="3436.8" text-anchor="middle" font-size="10" font-weight="700" fill="#06b6d4" stroke="#ffffff" stroke-width="3.5" paint-order="stroke fill">5</text>
<circle cx="979.0" cy="3137.0" r="3.1" fill="#ffffff" stroke="#111827" stroke-width="1.5"/>
<circle cx="1045.0" cy="3063.0" r="2.4" fill="#2563eb" opacity="0.72"/>
<circle cx="1294.0" cy="2890.0" r="2.4" fill="#2563eb" opacity="0.72"/>
<text x="1166.1" y="2978.8" text-anchor="middle" font-size="10" font-weight="700" fill="#3b82f6" stroke="#ffffff" stroke-width="3.5" paint-order="stroke fill">6</text>
<circle cx="1333.0" cy="2890.0" r="3.1" fill="#ffffff" stroke="#111827" stroke-width="1.5"/>
<circle cx="1340.0" cy="2890.0" r="2.4" fill="#2563eb" opacity="0.72"/>
<circle cx="1350.0" cy="2886.0" r="2.4" fill="#2563eb" opacity="0.72"/>
<text x="1344.8" y="2880.4" text-anchor="middle" font-size="10" font-weight="700" fill="#dc2626" stroke="#ffffff" stroke-width="3.5" paint-order="stroke fill">7</text>
<circle cx="1355.0" cy="2881.0" r="3.1" fill="#ffffff" stroke="#111827" stroke-width="1.5"/>
<circle cx="1378.0" cy="2858.0" r="2.4" fill="#2563eb" opacity="0.72"/>
<circle cx="1527.0" cy="2815.0" r="2.4" fill="#2563eb" opacity="0.72"/>
<text x="1465.0" y="2829.8" text-anchor="middle" font-size="10" font-weight="700" fill="#ec4899" stroke="#ffffff" stroke-width="3.5" paint-order="stroke fill">8</text>
<circle cx="1650.0" cy="2794.0" r="3.1" fill="#ffffff" stroke="#111827" stroke-width="1.5"/>
<circle cx="1848.0" cy="2762.0" r="2.4" fill="#2563eb" opacity="0.72"/>
<circle cx="1973.0" cy="2789.0" r="2.4" fill="#2563eb" opacity="0.72"/>
<text x="1894.6" y="2784.2" text-anchor="middle" font-size="10" font-weight="700" fill="#ef4444" stroke="#ffffff" stroke-width="3.5" paint-order="stroke fill">9</text>
<circle cx="2044.0" cy="2883.0" r="3.1" fill="#ffffff" stroke="#111827" stroke-width="1.5"/>
<circle cx="2101.0" cy="2958.0" r="2.4" fill="#2563eb" opacity="0.72"/>
<circle cx="2100.0" cy="2932.0" r="2.4" fill="#2563eb" opacity="0.72"/>
<text x="2093.4" y="3057.2" text-anchor="middle" font-size="10" font-weight="700" fill="#f97316" stroke="#ffffff" stroke-width="3.5" paint-order="stroke fill">10</text>
<circle cx="2100.0" cy="3961.0" r="3.1" fill="#ffffff" stroke="#111827" stroke-width="1.5"/>
<circle cx="2100.0" cy="5023.0" r="2.4" fill="#2563eb" opacity="0.72"/>
<circle cx="2104.0" cy="4970.0" r="2.4" fill="#2563eb" opacity="0.72"/>
<text x="2092.5" y="4866.5" text-anchor="middle" font-size="10" font-weight="700" fill="#eab308" stroke="#ffffff" stroke-width="3.5" paint-order="stroke fill">11</text>
<circle cx="2028.0" cy="5048.0" r="3.1" fill="#ffffff" stroke="#111827" stroke-width="1.5"/>
<circle cx="1959.0" cy="5119.0" r="2.4" fill="#2563eb" opacity="0.72"/>
<circle cx="1889.0" cy="5135.0" r="2.4" fill="#2563eb" opacity="0.72"/>
<text x="1911.2" y="5109.1" text-anchor="middle" font-size="10" font-weight="700" fill="#22c55e" stroke="#ffffff" stroke-width="3.5" paint-order="stroke fill">12</text>
<circle cx="1718.0" cy="5119.0" r="3.1" fill="#ffffff" stroke="#111827" stroke-width="1.5"/>
<circle cx="1658.0" cy="5113.0" r="2.4" fill="#2563eb" opacity="0.72"/>
<circle cx="1606.0" cy="5111.0" r="2.4" fill="#2563eb" opacity="0.72"/>
<text x="1639.1" y="5106.0" text-anchor="middle" font-size="10" font-weight="700" fill="#dc2626" stroke="#ffffff" stroke-width="3.5" paint-order="stroke fill">13</text>
<circle cx="1603.0" cy="5113.0" r="3.1" fill="#ffffff" stroke="#111827" stroke-width="1.5"/>
<circle cx="1601.0" cy="5116.0" r="2.4" fill="#2563eb" opacity="0.72"/>
<circle cx="1606.0" cy="5156.0" r="2.4" fill="#2563eb" opacity="0.72"/>
<text x="1604.8" y="5134.4" text-anchor="middle" font-size="10" font-weight="700" fill="#3b82f6" stroke="#ffffff" stroke-width="3.5" paint-order="stroke fill">14</text>
<circle cx="1614.0" cy="5202.0" r="3.1" fill="#ffffff" stroke="#111827" stroke-width="1.5"/>
<circle cx="1623.0" cy="5249.0" r="2.4" fill="#2563eb" opacity="0.72"/>
<circle cx="1630.0" cy="5292.0" r="2.4" fill="#2563eb" opacity="0.72"/>
<text x="1625.4" y="5258.4" text-anchor="middle" font-size="10" font-weight="700" fill="#8b5cf6" stroke="#ffffff" stroke-width="3.5" paint-order="stroke fill">15</text>
<circle cx="1630.0" cy="5298.0" r="3.1" fill="#ffffff" stroke="#111827" stroke-width="1.5"/>
<circle cx="1630.0" cy="5307.0" r="2.4" fill="#2563eb" opacity="0.72"/>
<circle cx="1577.0" cy="5310.0" r="2.4" fill="#2563eb" opacity="0.72"/>
<text x="1585.2" y="5300.4" text-anchor="middle" font-size="10" font-weight="700" fill="#ec4899" stroke="#ffffff" stroke-width="3.5" paint-order="stroke fill">16</text>
<circle cx="1431.0" cy="5310.0" r="3.1" fill="#ffffff" stroke="#111827" stroke-width="1.5"/>
<circle cx="1233.0" cy="5310.0" r="2.4" fill="#2563eb" opacity="0.72"/>
<circle cx="1233.0" cy="5310.0" r="2.4" fill="#2563eb" opacity="0.72"/>
<text x="1256.9" y="5297.4" text-anchor="middle" font-size="10" font-weight="700" fill="#ef4444" stroke="#ffffff" stroke-width="3.5" paint-order="stroke fill">17</text>
</g>
<g font-family="Arial, Helvetica, sans-serif" fill="#111827">
<rect x="18" y="16" width="430" height="82" rx="8" fill="#ffffff" opacity="0.90" stroke="#cbd5e1"/>
<text x="34" y="42" font-size="14" font-weight="700">Path audit: 17 cubic segments (no fixed budget)</text>
<text x="34" y="64" font-size="12" fill="#475569">Join warnings: 1; short segments: 1</text>
<text x="34" y="84" font-size="12" fill="#475569">Colored curves = segments; blue dots/gray lines = Bezier handles</text>
</g>
</svg>
