<svg xmlns="http://www.w3.org/2000/svg" width="1254" height="1254" viewBox="0 0 1254 1254">
<rect width="100%" height="100%" fill="#ffffff"/>
<path d="M5960 4915 c-67 -38 -131 -48 -281 -42 -217 9 -257 -4 -398 -127 -36 -31 -70 -56 -78 -56 -7 0 -13 -5 -13 -11 0 -6 7 -8 16 -5 9 3 59 1 111 -5 90 -11 136 -8 248 15 36 7 130 39 145 49 8 5 -7 -11 -33 -37 -75 -71 -184 -95 -332 -74 -73 11 -291 22 -284 14 3 -3 37 -15 75 -25 38 -10 111 -35 162 -55 189 -74 280 -85 387 -46 48 18 75 38 135 99 72 73 120 150 165 265 24 61 20 67 -25 41z" fill="#111111" opacity="0.16"/>
<g fill="none" stroke-linecap="round" stroke-linejoin="round">
<path d="M 5960.0 4915.0 C 5893.0 4877.0, 5829.0 4867.0, 5679.0 4873.0" stroke="#ef4444" stroke-width="4.5"/>
<path d="M 5679.0 4873.0 C 5462.0 4882.0, 5422.0 4869.0, 5281.0 4746.0" stroke="#f97316" stroke-width="4.5"/>
<path d="M 5281.0 4746.0 C 5245.0 4715.0, 5211.0 4690.0, 5203.0 4690.0" stroke="#eab308" stroke-width="4.5"/>
<path d="M 5203.0 4690.0 C 5196.0 4690.0, 5190.0 4685.0, 5190.0 4679.0" stroke="#22c55e" stroke-width="4.5"/>
<path d="M 5190.0 4679.0 C 5190.0 4673.0, 5197.0 4671.0, 5206.0 4674.0" stroke="#06b6d4" stroke-width="4.5"/>
<path d="M 5206.0 4674.0 C 5215.0 4677.0, 5265.0 4675.0, 5317.0 4669.0" stroke="#3b82f6" stroke-width="4.5"/>
<path d="M 5317.0 4669.0 C 5407.0 4658.0, 5453.0 4661.0, 5565.0 4684.0" stroke="#8b5cf6" stroke-width="4.5"/>
<path d="M 5565.0 4684.0 C 5601.0 4691.0, 5695.0 4723.0, 5710.0 4733.0" stroke="#ec4899" stroke-width="4.5"/>
<path d="M 5710.0 4733.0 C 5718.0 4738.0, 5703.0 4722.0, 5677.0 4696.0" stroke="#ef4444" stroke-width="4.5"/>
<path d="M 5677.0 4696.0 C 5602.0 4625.0, 5493.0 4601.0, 5345.0 4622.0" stroke="#f97316" stroke-width="4.5"/>
<path d="M 5345.0 4622.0 C 5272.0 4633.0, 5054.0 4644.0, 5061.0 4636.0" stroke="#eab308" stroke-width="4.5"/>
<path d="M 5061.0 4636.0 C 5064.0 4633.0, 5098.0 4621.0, 5136.0 4611.0" stroke="#22c55e" stroke-width="4.5"/>
<path d="M 5136.0 4611.0 C 5174.0 4601.0, 5247.0 4576.0, 5298.0 4556.0" stroke="#06b6d4" stroke-width="4.5"/>
<path d="M 5298.0 4556.0 C 5487.0 4482.0, 5578.0 4471.0, 5685.0 4510.0" stroke="#3b82f6" stroke-width="4.5"/>
<path d="M 5685.0 4510.0 C 5733.0 4528.0, 5760.0 4548.0, 5820.0 4609.0" stroke="#8b5cf6" stroke-width="4.5"/>
<path d="M 5820.0 4609.0 C 5892.0 4682.0, 5940.0 4759.0, 5985.0 4874.0" stroke="#ec4899" stroke-width="4.5"/>
<path d="M 5985.0 4874.0 C 6009.0 4935.0, 6005.0 4941.0, 5960.0 4915.0" stroke="#ef4444" stroke-width="4.5"/>
</g>
<g stroke="#64748b" stroke-width="1.2" stroke-dasharray="5 5" opacity="0.58">
<path d="M 5960.0 4915.0 L 5893.0 4877.0 M 5679.0 4873.0 L 5829.0 4867.0"/>
<path d="M 5679.0 4873.0 L 5462.0 4882.0 M 5281.0 4746.0 L 5422.0 4869.0"/>
<path d="M 5281.0 4746.0 L 5245.0 4715.0 M 5203.0 4690.0 L 5211.0 4690.0"/>
<path d="M 5203.0 4690.0 L 5196.0 4690.0 M 5190.0 4679.0 L 5190.0 4685.0"/>
<path d="M 5190.0 4679.0 L 5190.0 4673.0 M 5206.0 4674.0 L 5197.0 4671.0"/>
<path d="M 5206.0 4674.0 L 5215.0 4677.0 M 5317.0 4669.0 L 5265.0 4675.0"/>
<path d="M 5317.0 4669.0 L 5407.0 4658.0 M 5565.0 4684.0 L 5453.0 4661.0"/>
<path d="M 5565.0 4684.0 L 5601.0 4691.0 M 5710.0 4733.0 L 5695.0 4723.0"/>
<path d="M 5710.0 4733.0 L 5718.0 4738.0 M 5677.0 4696.0 L 5703.0 4722.0"/>
<path d="M 5677.0 4696.0 L 5602.0 4625.0 M 5345.0 4622.0 L 5493.0 4601.0"/>
<path d="M 5345.0 4622.0 L 5272.0 4633.0 M 5061.0 4636.0 L 5054.0 4644.0"/>
<path d="M 5061.0 4636.0 L 5064.0 4633.0 M 5136.0 4611.0 L 5098.0 4621.0"/>
<path d="M 5136.0 4611.0 L 5174.0 4601.0 M 5298.0 4556.0 L 5247.0 4576.0"/>
<path d="M 5298.0 4556.0 L 5487.0 4482.0 M 5685.0 4510.0 L 5578.0 4471.0"/>
<path d="M 5685.0 4510.0 L 5733.0 4528.0 M 5820.0 4609.0 L 5760.0 4548.0"/>
<path d="M 5820.0 4609.0 L 5892.0 4682.0 M 5985.0 4874.0 L 5940.0 4759.0"/>
<path d="M 5985.0 4874.0 L 6009.0 4935.0 M 5960.0 4915.0 L 6005.0 4941.0"/>
</g>
<g font-family="Arial, Helvetica, sans-serif">
<circle cx="5960.0" cy="4915.0" r="3.1" fill="#ffffff" stroke="#111827" stroke-width="1.5"/>
<circle cx="5893.0" cy="4877.0" r="2.4" fill="#2563eb" opacity="0.72"/>
<circle cx="5829.0" cy="4867.0" r="2.4" fill="#2563eb" opacity="0.72"/>
<text x="5850.6" y="4870.5" text-anchor="middle" font-size="10" font-weight="700" fill="#ef4444" stroke="#ffffff" stroke-width="3.5" paint-order="stroke fill">1</text>
<circle cx="5679.0" cy="4873.0" r="3.1" fill="#ffffff" stroke="#111827" stroke-width="1.5"/>
<circle cx="5462.0" cy="4882.0" r="2.4" fill="#2563eb" opacity="0.72"/>
<circle cx="5422.0" cy="4869.0" r="2.4" fill="#2563eb" opacity="0.72"/>
<text x="5451.5" y="4852.0" text-anchor="middle" font-size="10" font-weight="700" fill="#f97316" stroke="#ffffff" stroke-width="3.5" paint-order="stroke fill">2</text>
<circle cx="5281.0" cy="4746.0" r="3.1" fill="#ffffff" stroke="#111827" stroke-width="1.5"/>
<circle cx="5245.0" cy="4715.0" r="2.4" fill="#2563eb" opacity="0.72"/>
<circle cx="5211.0" cy="4690.0" r="2.4" fill="#2563eb" opacity="0.72"/>
<text x="5231.5" y="4699.4" text-anchor="middle" font-size="10" font-weight="700" fill="#eab308" stroke="#ffffff" stroke-width="3.5" paint-order="stroke fill">3</text>
<circle cx="5203.0" cy="4690.0" r="3.1" fill="#ffffff" stroke="#111827" stroke-width="1.5"/>
<circle cx="5196.0" cy="4690.0" r="2.4" fill="#2563eb" opacity="0.72"/>
<circle cx="5190.0" cy="4685.0" r="2.4" fill="#2563eb" opacity="0.72"/>
<text x="5193.9" y="4679.8" text-anchor="middle" font-size="10" font-weight="700" fill="#dc2626" stroke="#ffffff" stroke-width="3.5" paint-order="stroke fill">4</text>
<circle cx="5190.0" cy="4679.0" r="3.1" fill="#ffffff" stroke="#111827" stroke-width="1.5"/>
<circle cx="5190.0" cy="4673.0" r="2.4" fill="#2563eb" opacity="0.72"/>
<circle cx="5197.0" cy="4671.0" r="2.4" fill="#2563eb" opacity="0.72"/>
<text x="5194.6" y="4666.1" text-anchor="middle" font-size="10" font-weight="700" fill="#dc2626" stroke="#ffffff" stroke-width="3.5" paint-order="stroke fill">5</text>
<circle cx="5206.0" cy="4674.0" r="3.1" fill="#ffffff" stroke="#111827" stroke-width="1.5"/>
<circle cx="5215.0" cy="4677.0" r="2.4" fill="#2563eb" opacity="0.72"/>
<circle cx="5265.0" cy="4675.0" r="2.4" fill="#2563eb" opacity="0.72"/>
<text x="5245.4" y="4667.9" text-anchor="middle" font-size="10" font-weight="700" fill="#3b82f6" stroke="#ffffff" stroke-width="3.5" paint-order="stroke fill">6</text>
<circle cx="5317.0" cy="4669.0" r="3.1" fill="#ffffff" stroke="#111827" stroke-width="1.5"/>
<circle cx="5407.0" cy="4658.0" r="2.4" fill="#2563eb" opacity="0.72"/>
<circle cx="5453.0" cy="4661.0" r="2.4" fill="#2563eb" opacity="0.72"/>
<text x="5432.8" y="4656.8" text-anchor="middle" font-size="10" font-weight="700" fill="#8b5cf6" stroke="#ffffff" stroke-width="3.5" paint-order="stroke fill">7</text>
<circle cx="5565.0" cy="4684.0" r="3.1" fill="#ffffff" stroke="#111827" stroke-width="1.5"/>
<circle cx="5601.0" cy="4691.0" r="2.4" fill="#2563eb" opacity="0.72"/>
<circle cx="5695.0" cy="4723.0" r="2.4" fill="#2563eb" opacity="0.72"/>
<text x="5645.4" y="4700.4" text-anchor="middle" font-size="10" font-weight="700" fill="#ec4899" stroke="#ffffff" stroke-width="3.5" paint-order="stroke fill">8</text>
<circle cx="5710.0" cy="4733.0" r="3.1" fill="#ffffff" stroke="#111827" stroke-width="1.5"/>
<circle cx="5718.0" cy="4738.0" r="2.4" fill="#2563eb" opacity="0.72"/>
<circle cx="5703.0" cy="4722.0" r="2.4" fill="#2563eb" opacity="0.72"/>
<text x="5706.2" y="4719.1" text-anchor="middle" font-size="10" font-weight="700" fill="#ef4444" stroke="#ffffff" stroke-width="3.5" paint-order="stroke fill">9</text>
<circle cx="5677.0" cy="4696.0" r="3.1" fill="#ffffff" stroke="#111827" stroke-width="1.5"/>
<circle cx="5602.0" cy="4625.0" r="2.4" fill="#2563eb" opacity="0.72"/>
<circle cx="5493.0" cy="4601.0" r="2.4" fill="#2563eb" opacity="0.72"/>
<text x="5538.4" y="4617.5" text-anchor="middle" font-size="10" font-weight="700" fill="#f97316" stroke="#ffffff" stroke-width="3.5" paint-order="stroke fill">10</text>
<circle cx="5345.0" cy="4622.0" r="3.1" fill="#ffffff" stroke="#111827" stroke-width="1.5"/>
<circle cx="5272.0" cy="4633.0" r="2.4" fill="#2563eb" opacity="0.72"/>
<circle cx="5054.0" cy="4644.0" r="2.4" fill="#2563eb" opacity="0.72"/>
<text x="5173.0" y="4629.1" text-anchor="middle" font-size="10" font-weight="700" fill="#eab308" stroke="#ffffff" stroke-width="3.5" paint-order="stroke fill">11</text>
<circle cx="5061.0" cy="4636.0" r="3.1" fill="#ffffff" stroke="#111827" stroke-width="1.5"/>
<circle cx="5064.0" cy="4633.0" r="2.4" fill="#2563eb" opacity="0.72"/>
<circle cx="5098.0" cy="4621.0" r="2.4" fill="#2563eb" opacity="0.72"/>
<text x="5085.4" y="4619.1" text-anchor="middle" font-size="10" font-weight="700" fill="#22c55e" stroke="#ffffff" stroke-width="3.5" paint-order="stroke fill">12</text>
<circle cx="5136.0" cy="4611.0" r="3.1" fill="#ffffff" stroke="#111827" stroke-width="1.5"/>
<circle cx="5174.0" cy="4601.0" r="2.4" fill="#2563eb" opacity="0.72"/>
<circle cx="5247.0" cy="4576.0" r="2.4" fill="#2563eb" opacity="0.72"/>
<text x="5212.1" y="4580.2" text-anchor="middle" font-size="10" font-weight="700" fill="#06b6d4" stroke="#ffffff" stroke-width="3.5" paint-order="stroke fill">13</text>
<circle cx="5298.0" cy="4556.0" r="3.1" fill="#ffffff" stroke="#111827" stroke-width="1.5"/>
<circle cx="5487.0" cy="4482.0" r="2.4" fill="#2563eb" opacity="0.72"/>
<circle cx="5578.0" cy="4471.0" r="2.4" fill="#2563eb" opacity="0.72"/>
<text x="5522.2" y="4483.6" text-anchor="middle" font-size="10" font-weight="700" fill="#3b82f6" stroke="#ffffff" stroke-width="3.5" paint-order="stroke fill">14</text>
<circle cx="5685.0" cy="4510.0" r="3.1" fill="#ffffff" stroke="#111827" stroke-width="1.5"/>
<circle cx="5733.0" cy="4528.0" r="2.4" fill="#2563eb" opacity="0.72"/>
<circle cx="5760.0" cy="4548.0" r="2.4" fill="#2563eb" opacity="0.72"/>
<text x="5748.0" y="4536.4" text-anchor="middle" font-size="10" font-weight="700" fill="#8b5cf6" stroke="#ffffff" stroke-width="3.5" paint-order="stroke fill">15</text>
<circle cx="5820.0" cy="4609.0" r="3.1" fill="#ffffff" stroke="#111827" stroke-width="1.5"/>
<circle cx="5892.0" cy="4682.0" r="2.4" fill="#2563eb" opacity="0.72"/>
<circle cx="5940.0" cy="4759.0" r="2.4" fill="#2563eb" opacity="0.72"/>
<text x="5912.6" y="4718.8" text-anchor="middle" font-size="10" font-weight="700" fill="#ec4899" stroke="#ffffff" stroke-width="3.5" paint-order="stroke fill">16</text>
<circle cx="5985.0" cy="4874.0" r="3.1" fill="#ffffff" stroke="#111827" stroke-width="1.5"/>
<circle cx="6009.0" cy="4935.0" r="2.4" fill="#2563eb" opacity="0.72"/>
<circle cx="6005.0" cy="4941.0" r="2.4" fill="#2563eb" opacity="0.72"/>
<text x="5998.4" y="4920.1" text-anchor="middle" font-size="10" font-weight="700" fill="#ef4444" stroke="#ffffff" stroke-width="3.5" paint-order="stroke fill">17</text>
</g>
<g font-family="Arial, Helvetica, sans-serif" fill="#111827">
<rect x="18" y="16" width="430" height="82" rx="8" fill="#ffffff" opacity="0.90" stroke="#cbd5e1"/>
<text x="34" y="42" font-size="14" font-weight="700">Path audit: 17 cubic segments (no fixed budget)</text>
<text x="34" y="64" font-size="12" fill="#475569">Join warnings: 0; short segments: 2</text>
<text x="34" y="84" font-size="12" fill="#475569">Colored curves = segments; blue dots/gray lines = Bezier handles</text>
</g>
</svg>
