<svg xmlns="http://www.w3.org/2000/svg" width="1254" height="1254" viewBox="0 0 1254 1254">
<rect width="100%" height="100%" fill="#ffffff"/>
<path d="M1637 6978 c-4 -62 -7 -162 -7 -223 -1 -110 -1 -110 -48 -134 -72 -36 -140 -83 -220 -153 -81 -71 -201 -209 -268 -309 -60 -91 -120 -215 -153 -318 -19 -59 -26 -99 -23 -128 2 -26 0 -43 -6 -43 -6 0 -13 6 -15 13 -3 6 -6 -2 -6 -19 -1 -17 -11 -60 -23 -95 -17 -52 -21 -88 -22 -194 0 -131 21 -298 50 -405 40 -145 96 -310 104 -310 6 0 10 -7 10 -16 0 -24 99 -196 172 -299 35 -49 104 -130 153 -179 50 -50 133 -121 185 -159 109 -77 320 -185 431 -221 41 -13 113 -32 160 -42 63 -14 127 -19 254 -19 153 0 175 2 226 23 30 12 74 38 97 57 22 20 53 61 69 93 28 57 28 57 31 1366 2 1138 0 1317 -13 1361 -9 31 -31 70 -55 98 -23 26 -65 58 -98 74 -55 27 -62 28 -212 28 -85 -1 -181 -5 -212 -9 -58 -9 -58 -9 -58 25 1 19 9 82 19 142 l17 107 -266 0 -267 0 -6 -112z" fill="#111111" opacity="0.16"/>
<g fill="none" stroke-linecap="round" stroke-linejoin="round">
<path d="M 1637.0 6978.0 C 1633.0 6916.0, 1630.0 6816.0, 1630.0 6755.0" stroke="#ef4444" stroke-width="4.5"/>
<path d="M 1630.0 6755.0 C 1629.0 6645.0, 1629.0 6645.0, 1582.0 6621.0" stroke="#f97316" stroke-width="4.5"/>
<path d="M 1582.0 6621.0 C 1510.0 6585.0, 1442.0 6538.0, 1362.0 6468.0" stroke="#eab308" stroke-width="4.5"/>
<path d="M 1362.0 6468.0 C 1281.0 6397.0, 1161.0 6259.0, 1094.0 6159.0" stroke="#22c55e" stroke-width="4.5"/>
<path d="M 1094.0 6159.0 C 1034.0 6068.0, 974.0 5944.0, 941.0 5841.0" stroke="#06b6d4" stroke-width="4.5"/>
<path d="M 941.0 5841.0 C 922.0 5782.0, 915.0 5742.0, 918.0 5713.0" stroke="#3b82f6" stroke-width="4.5"/>
<path d="M 918.0 5713.0 C 920.0 5687.0, 918.0 5670.0, 912.0 5670.0" stroke="#8b5cf6" stroke-width="4.5"/>
<path d="M 912.0 5670.0 C 906.0 5670.0, 899.0 5676.0, 897.0 5683.0" stroke="#ec4899" stroke-width="4.5"/>
<path d="M 897.0 5683.0 C 894.0 5689.0, 891.0 5681.0, 891.0 5664.0" stroke="#ef4444" stroke-width="4.5"/>
<path d="M 891.0 5664.0 C 890.0 5647.0, 880.0 5604.0, 868.0 5569.0" stroke="#f97316" stroke-width="4.5"/>
<path d="M 868.0 5569.0 C 851.0 5517.0, 847.0 5481.0, 846.0 5375.0" stroke="#eab308" stroke-width="4.5"/>
<path d="M 846.0 5375.0 C 846.0 5244.0, 867.0 5077.0, 896.0 4970.0" stroke="#22c55e" stroke-width="4.5"/>
<path d="M 896.0 4970.0 C 936.0 4825.0, 992.0 4660.0, 1000.0 4660.0" stroke="#06b6d4" stroke-width="4.5"/>
<path d="M 1000.0 4660.0 C 1006.0 4660.0, 1010.0 4653.0, 1010.0 4644.0" stroke="#3b82f6" stroke-width="4.5"/>
<path d="M 1010.0 4644.0 C 1010.0 4620.0, 1109.0 4448.0, 1182.0 4345.0" stroke="#8b5cf6" stroke-width="4.5"/>
<path d="M 1182.0 4345.0 C 1217.0 4296.0, 1286.0 4215.0, 1335.0 4166.0" stroke="#ec4899" stroke-width="4.5"/>
<path d="M 1335.0 4166.0 C 1385.0 4116.0, 1468.0 4045.0, 1520.0 4007.0" stroke="#ef4444" stroke-width="4.5"/>
<path d="M 1520.0 4007.0 C 1629.0 3930.0, 1840.0 3822.0, 1951.0 3786.0" stroke="#f97316" stroke-width="4.5"/>
<path d="M 1951.0 3786.0 C 1992.0 3773.0, 2064.0 3754.0, 2111.0 3744.0" stroke="#eab308" stroke-width="4.5"/>
<path d="M 2111.0 3744.0 C 2174.0 3730.0, 2238.0 3725.0, 2365.0 3725.0" stroke="#22c55e" stroke-width="4.5"/>
<path d="M 2365.0 3725.0 C 2518.0 3725.0, 2540.0 3727.0, 2591.0 3748.0" stroke="#06b6d4" stroke-width="4.5"/>
<path d="M 2591.0 3748.0 C 2621.0 3760.0, 2665.0 3786.0, 2688.0 3805.0" stroke="#3b82f6" stroke-width="4.5"/>
<path d="M 2688.0 3805.0 C 2710.0 3825.0, 2741.0 3866.0, 2757.0 3898.0" stroke="#8b5cf6" stroke-width="4.5"/>
<path d="M 2757.0 3898.0 C 2785.0 3955.0, 2785.0 3955.0, 2788.0 5264.0" stroke="#ec4899" stroke-width="4.5"/>
<path d="M 2788.0 5264.0 C 2790.0 6402.0, 2788.0 6581.0, 2775.0 6625.0" stroke="#ef4444" stroke-width="4.5"/>
<path d="M 2775.0 6625.0 C 2766.0 6656.0, 2744.0 6695.0, 2720.0 6723.0" stroke="#f97316" stroke-width="4.5"/>
<path d="M 2720.0 6723.0 C 2697.0 6749.0, 2655.0 6781.0, 2622.0 6797.0" stroke="#eab308" stroke-width="4.5"/>
<path d="M 2622.0 6797.0 C 2567.0 6824.0, 2560.0 6825.0, 2410.0 6825.0" stroke="#22c55e" stroke-width="4.5"/>
<path d="M 2410.0 6825.0 C 2325.0 6824.0, 2229.0 6820.0, 2198.0 6816.0" stroke="#06b6d4" stroke-width="4.5"/>
<path d="M 2198.0 6816.0 C 2140.0 6807.0, 2140.0 6807.0, 2140.0 6841.0" stroke="#3b82f6" stroke-width="4.5"/>
<path d="M 2140.0 6841.0 C 2141.0 6860.0, 2149.0 6923.0, 2159.0 6983.0" stroke="#8b5cf6" stroke-width="4.5"/>
<path d="M 2159.0 6983.0 L 2176.0 7090.0" stroke="#ec4899" stroke-width="4.5"/>
<path d="M 2176.0 7090.0 L 1910.0 7090.0" stroke="#ef4444" stroke-width="4.5"/>
<path d="M 1910.0 7090.0 L 1643.0 7090.0" stroke="#f97316" stroke-width="4.5"/>
<path d="M 1643.0 7090.0 L 1637.0 6978.0" stroke="#eab308" stroke-width="4.5"/>
</g>
<g stroke="#64748b" stroke-width="1.2" stroke-dasharray="5 5" opacity="0.58">
<path d="M 1637.0 6978.0 L 1633.0 6916.0 M 1630.0 6755.0 L 1630.0 6816.0"/>
<path d="M 1630.0 6755.0 L 1629.0 6645.0 M 1582.0 6621.0 L 1629.0 6645.0"/>
<path d="M 1582.0 6621.0 L 1510.0 6585.0 M 1362.0 6468.0 L 1442.0 6538.0"/>
<path d="M 1362.0 6468.0 L 1281.0 6397.0 M 1094.0 6159.0 L 1161.0 6259.0"/>
<path d="M 1094.0 6159.0 L 1034.0 6068.0 M 941.0 5841.0 L 974.0 5944.0"/>
<path d="M 941.0 5841.0 L 922.0 5782.0 M 918.0 5713.0 L 915.0 5742.0"/>
<path d="M 918.0 5713.0 L 920.0 5687.0 M 912.0 5670.0 L 918.0 5670.0"/>
<path d="M 912.0 5670.0 L 906.0 5670.0 M 897.0 5683.0 L 899.0 5676.0"/>
<path d="M 897.0 5683.0 L 894.0 5689.0 M 891.0 5664.0 L 891.0 5681.0"/>
<path d="M 891.0 5664.0 L 890.0 5647.0 M 868.0 5569.0 L 880.0 5604.0"/>
<path d="M 868.0 5569.0 L 851.0 5517.0 M 846.0 5375.0 L 847.0 5481.0"/>
<path d="M 846.0 5375.0 L 846.0 5244.0 M 896.0 4970.0 L 867.0 5077.0"/>
<path d="M 896.0 4970.0 L 936.0 4825.0 M 1000.0 4660.0 L 992.0 4660.0"/>
<path d="M 1000.0 4660.0 L 1006.0 4660.0 M 1010.0 4644.0 L 1010.0 4653.0"/>
<path d="M 1010.0 4644.0 L 1010.0 4620.0 M 1182.0 4345.0 L 1109.0 4448.0"/>
<path d="M 1182.0 4345.0 L 1217.0 4296.0 M 1335.0 4166.0 L 1286.0 4215.0"/>
<path d="M 1335.0 4166.0 L 1385.0 4116.0 M 1520.0 4007.0 L 1468.0 4045.0"/>
<path d="M 1520.0 4007.0 L 1629.0 3930.0 M 1951.0 3786.0 L 1840.0 3822.0"/>
<path d="M 1951.0 3786.0 L 1992.0 3773.0 M 2111.0 3744.0 L 2064.0 3754.0"/>
<path d="M 2111.0 3744.0 L 2174.0 3730.0 M 2365.0 3725.0 L 2238.0 3725.0"/>
<path d="M 2365.0 3725.0 L 2518.0 3725.0 M 2591.0 3748.0 L 2540.0 3727.0"/>
<path d="M 2591.0 3748.0 L 2621.0 3760.0 M 2688.0 3805.0 L 2665.0 3786.0"/>
<path d="M 2688.0 3805.0 L 2710.0 3825.0 M 2757.0 3898.0 L 2741.0 3866.0"/>
<path d="M 2757.0 3898.0 L 2785.0 3955.0 M 2788.0 5264.0 L 2785.0 3955.0"/>
<path d="M 2788.0 5264.0 L 2790.0 6402.0 M 2775.0 6625.0 L 2788.0 6581.0"/>
<path d="M 2775.0 6625.0 L 2766.0 6656.0 M 2720.0 6723.0 L 2744.0 6695.0"/>
<path d="M 2720.0 6723.0 L 2697.0 6749.0 M 2622.0 6797.0 L 2655.0 6781.0"/>
<path d="M 2622.0 6797.0 L 2567.0 6824.0 M 2410.0 6825.0 L 2560.0 6825.0"/>
<path d="M 2410.0 6825.0 L 2325.0 6824.0 M 2198.0 6816.0 L 2229.0 6820.0"/>
<path d="M 2198.0 6816.0 L 2140.0 6807.0 M 2140.0 6841.0 L 2140.0 6807.0"/>
<path d="M 2140.0 6841.0 L 2141.0 6860.0 M 2159.0 6983.0 L 2149.0 6923.0"/>
</g>
<g font-family="Arial, Helvetica, sans-serif">
<circle cx="1637.0" cy="6978.0" r="3.1" fill="#ffffff" stroke="#111827" stroke-width="1.5"/>
<circle cx="1633.0" cy="6916.0" r="2.4" fill="#2563eb" opacity="0.72"/>
<circle cx="1630.0" cy="6816.0" r="2.4" fill="#2563eb" opacity="0.72"/>
<text x="1632.0" y="6859.1" text-anchor="middle" font-size="10" font-weight="700" fill="#ef4444" stroke="#ffffff" stroke-width="3.5" paint-order="stroke fill">1</text>
<circle cx="1630.0" cy="6755.0" r="3.1" fill="#ffffff" stroke="#111827" stroke-width="1.5"/>
<circle cx="1629.0" cy="6645.0" r="2.4" fill="#2563eb" opacity="0.72"/>
<circle cx="1629.0" cy="6645.0" r="2.4" fill="#2563eb" opacity="0.72"/>
<text x="1623.2" y="6648.8" text-anchor="middle" font-size="10" font-weight="700" fill="#f97316" stroke="#ffffff" stroke-width="3.5" paint-order="stroke fill">2</text>
<circle cx="1582.0" cy="6621.0" r="3.1" fill="#ffffff" stroke="#111827" stroke-width="1.5"/>
<circle cx="1510.0" cy="6585.0" r="2.4" fill="#2563eb" opacity="0.72"/>
<circle cx="1442.0" cy="6538.0" r="2.4" fill="#2563eb" opacity="0.72"/>
<text x="1475.0" y="6550.2" text-anchor="middle" font-size="10" font-weight="700" fill="#eab308" stroke="#ffffff" stroke-width="3.5" paint-order="stroke fill">3</text>
<circle cx="1362.0" cy="6468.0" r="3.1" fill="#ffffff" stroke="#111827" stroke-width="1.5"/>
<circle cx="1281.0" cy="6397.0" r="2.4" fill="#2563eb" opacity="0.72"/>
<circle cx="1161.0" cy="6259.0" r="2.4" fill="#2563eb" opacity="0.72"/>
<text x="1222.8" y="6317.4" text-anchor="middle" font-size="10" font-weight="700" fill="#22c55e" stroke="#ffffff" stroke-width="3.5" paint-order="stroke fill">4</text>
<circle cx="1094.0" cy="6159.0" r="3.1" fill="#ffffff" stroke="#111827" stroke-width="1.5"/>
<circle cx="1034.0" cy="6068.0" r="2.4" fill="#2563eb" opacity="0.72"/>
<circle cx="974.0" cy="5944.0" r="2.4" fill="#2563eb" opacity="0.72"/>
<text x="1007.4" y="5997.5" text-anchor="middle" font-size="10" font-weight="700" fill="#06b6d4" stroke="#ffffff" stroke-width="3.5" paint-order="stroke fill">5</text>
<circle cx="941.0" cy="5841.0" r="3.1" fill="#ffffff" stroke="#111827" stroke-width="1.5"/>
<circle cx="922.0" cy="5782.0" r="2.4" fill="#2563eb" opacity="0.72"/>
<circle cx="915.0" cy="5742.0" r="2.4" fill="#2563eb" opacity="0.72"/>
<text x="921.2" y="5758.8" text-anchor="middle" font-size="10" font-weight="700" fill="#3b82f6" stroke="#ffffff" stroke-width="3.5" paint-order="stroke fill">6</text>
<circle cx="918.0" cy="5713.0" r="3.1" fill="#ffffff" stroke="#111827" stroke-width="1.5"/>
<circle cx="920.0" cy="5687.0" r="2.4" fill="#2563eb" opacity="0.72"/>
<circle cx="918.0" cy="5670.0" r="2.4" fill="#2563eb" opacity="0.72"/>
<text x="918.0" y="5674.8" text-anchor="middle" font-size="10" font-weight="700" fill="#dc2626" stroke="#ffffff" stroke-width="3.5" paint-order="stroke fill">7</text>
<circle cx="912.0" cy="5670.0" r="3.1" fill="#ffffff" stroke="#111827" stroke-width="1.5"/>
<circle cx="906.0" cy="5670.0" r="2.4" fill="#2563eb" opacity="0.72"/>
<circle cx="899.0" cy="5676.0" r="2.4" fill="#2563eb" opacity="0.72"/>
<text x="903.0" y="5666.9" text-anchor="middle" font-size="10" font-weight="700" fill="#dc2626" stroke="#ffffff" stroke-width="3.5" paint-order="stroke fill">8</text>
<circle cx="897.0" cy="5683.0" r="3.1" fill="#ffffff" stroke="#111827" stroke-width="1.5"/>
<circle cx="894.0" cy="5689.0" r="2.4" fill="#2563eb" opacity="0.72"/>
<circle cx="891.0" cy="5681.0" r="2.4" fill="#2563eb" opacity="0.72"/>
<text x="892.9" y="5675.1" text-anchor="middle" font-size="10" font-weight="700" fill="#dc2626" stroke="#ffffff" stroke-width="3.5" paint-order="stroke fill">9</text>
<circle cx="891.0" cy="5664.0" r="3.1" fill="#ffffff" stroke="#111827" stroke-width="1.5"/>
<circle cx="890.0" cy="5647.0" r="2.4" fill="#2563eb" opacity="0.72"/>
<circle cx="880.0" cy="5604.0" r="2.4" fill="#2563eb" opacity="0.72"/>
<text x="883.6" y="5616.2" text-anchor="middle" font-size="10" font-weight="700" fill="#f97316" stroke="#ffffff" stroke-width="3.5" paint-order="stroke fill">10</text>
<circle cx="868.0" cy="5569.0" r="3.1" fill="#ffffff" stroke="#111827" stroke-width="1.5"/>
<circle cx="851.0" cy="5517.0" r="2.4" fill="#2563eb" opacity="0.72"/>
<circle cx="847.0" cy="5481.0" r="2.4" fill="#2563eb" opacity="0.72"/>
<text x="851.0" y="5485.2" text-anchor="middle" font-size="10" font-weight="700" fill="#eab308" stroke="#ffffff" stroke-width="3.5" paint-order="stroke fill">11</text>
<circle cx="846.0" cy="5375.0" r="3.1" fill="#ffffff" stroke="#111827" stroke-width="1.5"/>
<circle cx="846.0" cy="5244.0" r="2.4" fill="#2563eb" opacity="0.72"/>
<circle cx="867.0" cy="5077.0" r="2.4" fill="#2563eb" opacity="0.72"/>
<text x="860.1" y="5156.5" text-anchor="middle" font-size="10" font-weight="700" fill="#22c55e" stroke="#ffffff" stroke-width="3.5" paint-order="stroke fill">12</text>
<circle cx="896.0" cy="4970.0" r="3.1" fill="#ffffff" stroke="#111827" stroke-width="1.5"/>
<circle cx="936.0" cy="4825.0" r="2.4" fill="#2563eb" opacity="0.72"/>
<circle cx="992.0" cy="4660.0" r="2.4" fill="#2563eb" opacity="0.72"/>
<text x="960.0" y="4753.6" text-anchor="middle" font-size="10" font-weight="700" fill="#06b6d4" stroke="#ffffff" stroke-width="3.5" paint-order="stroke fill">13</text>
<circle cx="1000.0" cy="4660.0" r="3.1" fill="#ffffff" stroke="#111827" stroke-width="1.5"/>
<circle cx="1006.0" cy="4660.0" r="2.4" fill="#2563eb" opacity="0.72"/>
<circle cx="1010.0" cy="4653.0" r="2.4" fill="#2563eb" opacity="0.72"/>
<text x="1007.2" y="4648.4" text-anchor="middle" font-size="10" font-weight="700" fill="#dc2626" stroke="#ffffff" stroke-width="3.5" paint-order="stroke fill">14</text>
<circle cx="1010.0" cy="4644.0" r="3.1" fill="#ffffff" stroke="#111827" stroke-width="1.5"/>
<circle cx="1010.0" cy="4620.0" r="2.4" fill="#2563eb" opacity="0.72"/>
<circle cx="1109.0" cy="4448.0" r="2.4" fill="#2563eb" opacity="0.72"/>
<text x="1068.6" y="4517.1" text-anchor="middle" font-size="10" font-weight="700" fill="#8b5cf6" stroke="#ffffff" stroke-width="3.5" paint-order="stroke fill">15</text>
<circle cx="1182.0" cy="4345.0" r="3.1" fill="#ffffff" stroke="#111827" stroke-width="1.5"/>
<circle cx="1217.0" cy="4296.0" r="2.4" fill="#2563eb" opacity="0.72"/>
<circle cx="1286.0" cy="4215.0" r="2.4" fill="#2563eb" opacity="0.72"/>
<text x="1253.2" y="4248.5" text-anchor="middle" font-size="10" font-weight="700" fill="#ec4899" stroke="#ffffff" stroke-width="3.5" paint-order="stroke fill">16</text>
<circle cx="1335.0" cy="4166.0" r="3.1" fill="#ffffff" stroke="#111827" stroke-width="1.5"/>
<circle cx="1385.0" cy="4116.0" r="2.4" fill="#2563eb" opacity="0.72"/>
<circle cx="1468.0" cy="4045.0" r="2.4" fill="#2563eb" opacity="0.72"/>
<text x="1426.8" y="4075.0" text-anchor="middle" font-size="10" font-weight="700" fill="#ef4444" stroke="#ffffff" stroke-width="3.5" paint-order="stroke fill">17</text>
<circle cx="1520.0" cy="4007.0" r="3.1" fill="#ffffff" stroke="#111827" stroke-width="1.5"/>
<circle cx="1629.0" cy="3930.0" r="2.4" fill="#2563eb" opacity="0.72"/>
<circle cx="1840.0" cy="3822.0" r="2.4" fill="#2563eb" opacity="0.72"/>
<text x="1734.8" y="3874.1" text-anchor="middle" font-size="10" font-weight="700" fill="#f97316" stroke="#ffffff" stroke-width="3.5" paint-order="stroke fill">18</text>
<circle cx="1951.0" cy="3786.0" r="3.1" fill="#ffffff" stroke="#111827" stroke-width="1.5"/>
<circle cx="1992.0" cy="3773.0" r="2.4" fill="#2563eb" opacity="0.72"/>
<circle cx="2064.0" cy="3754.0" r="2.4" fill="#2563eb" opacity="0.72"/>
<text x="2028.8" y="3756.9" text-anchor="middle" font-size="10" font-weight="700" fill="#eab308" stroke="#ffffff" stroke-width="3.5" paint-order="stroke fill">19</text>
<circle cx="2111.0" cy="3744.0" r="3.1" fill="#ffffff" stroke="#111827" stroke-width="1.5"/>
<circle cx="2174.0" cy="3730.0" r="2.4" fill="#2563eb" opacity="0.72"/>
<circle cx="2238.0" cy="3725.0" r="2.4" fill="#2563eb" opacity="0.72"/>
<text x="2214.0" y="3722.2" text-anchor="middle" font-size="10" font-weight="700" fill="#22c55e" stroke="#ffffff" stroke-width="3.5" paint-order="stroke fill">20</text>
<circle cx="2365.0" cy="3725.0" r="3.1" fill="#ffffff" stroke="#111827" stroke-width="1.5"/>
<circle cx="2518.0" cy="3725.0" r="2.4" fill="#2563eb" opacity="0.72"/>
<circle cx="2540.0" cy="3727.0" r="2.4" fill="#2563eb" opacity="0.72"/>
<text x="2516.2" y="3721.6" text-anchor="middle" font-size="10" font-weight="700" fill="#06b6d4" stroke="#ffffff" stroke-width="3.5" paint-order="stroke fill">21</text>
<circle cx="2591.0" cy="3748.0" r="3.1" fill="#ffffff" stroke="#111827" stroke-width="1.5"/>
<circle cx="2621.0" cy="3760.0" r="2.4" fill="#2563eb" opacity="0.72"/>
<circle cx="2665.0" cy="3786.0" r="2.4" fill="#2563eb" opacity="0.72"/>
<text x="2642.1" y="3766.9" text-anchor="middle" font-size="10" font-weight="700" fill="#3b82f6" stroke="#ffffff" stroke-width="3.5" paint-order="stroke fill">22</text>
<circle cx="2688.0" cy="3805.0" r="3.1" fill="#ffffff" stroke="#111827" stroke-width="1.5"/>
<circle cx="2710.0" cy="3825.0" r="2.4" fill="#2563eb" opacity="0.72"/>
<circle cx="2741.0" cy="3866.0" r="2.4" fill="#2563eb" opacity="0.72"/>
<text x="2724.8" y="3840.0" text-anchor="middle" font-size="10" font-weight="700" fill="#8b5cf6" stroke="#ffffff" stroke-width="3.5" paint-order="stroke fill">23</text>
<circle cx="2757.0" cy="3898.0" r="3.1" fill="#ffffff" stroke="#111827" stroke-width="1.5"/>
<circle cx="2785.0" cy="3955.0" r="2.4" fill="#2563eb" opacity="0.72"/>
<circle cx="2785.0" cy="3955.0" r="2.4" fill="#2563eb" opacity="0.72"/>
<text x="2781.9" y="4104.5" text-anchor="middle" font-size="10" font-weight="700" fill="#ec4899" stroke="#ffffff" stroke-width="3.5" paint-order="stroke fill">24</text>
<circle cx="2788.0" cy="5264.0" r="3.1" fill="#ffffff" stroke="#111827" stroke-width="1.5"/>
<circle cx="2790.0" cy="6402.0" r="2.4" fill="#2563eb" opacity="0.72"/>
<circle cx="2788.0" cy="6581.0" r="2.4" fill="#2563eb" opacity="0.72"/>
<text x="2787.1" y="6347.8" text-anchor="middle" font-size="10" font-weight="700" fill="#ef4444" stroke="#ffffff" stroke-width="3.5" paint-order="stroke fill">25</text>
<circle cx="2775.0" cy="6625.0" r="3.1" fill="#ffffff" stroke="#111827" stroke-width="1.5"/>
<circle cx="2766.0" cy="6656.0" r="2.4" fill="#2563eb" opacity="0.72"/>
<circle cx="2744.0" cy="6695.0" r="2.4" fill="#2563eb" opacity="0.72"/>
<text x="2753.1" y="6668.1" text-anchor="middle" font-size="10" font-weight="700" fill="#f97316" stroke="#ffffff" stroke-width="3.5" paint-order="stroke fill">26</text>
<circle cx="2720.0" cy="6723.0" r="3.1" fill="#ffffff" stroke="#111827" stroke-width="1.5"/>
<circle cx="2697.0" cy="6749.0" r="2.4" fill="#2563eb" opacity="0.72"/>
<circle cx="2655.0" cy="6781.0" r="2.4" fill="#2563eb" opacity="0.72"/>
<text x="2674.8" y="6756.8" text-anchor="middle" font-size="10" font-weight="700" fill="#eab308" stroke="#ffffff" stroke-width="3.5" paint-order="stroke fill">27</text>
<circle cx="2622.0" cy="6797.0" r="3.1" fill="#ffffff" stroke="#111827" stroke-width="1.5"/>
<circle cx="2567.0" cy="6824.0" r="2.4" fill="#2563eb" opacity="0.72"/>
<circle cx="2560.0" cy="6825.0" r="2.4" fill="#2563eb" opacity="0.72"/>
<text x="2551.6" y="6814.1" text-anchor="middle" font-size="10" font-weight="700" fill="#22c55e" stroke="#ffffff" stroke-width="3.5" paint-order="stroke fill">28</text>
<circle cx="2410.0" cy="6825.0" r="3.1" fill="#ffffff" stroke="#111827" stroke-width="1.5"/>
<circle cx="2325.0" cy="6824.0" r="2.4" fill="#2563eb" opacity="0.72"/>
<circle cx="2229.0" cy="6820.0" r="2.4" fill="#2563eb" opacity="0.72"/>
<text x="2283.8" y="6814.6" text-anchor="middle" font-size="10" font-weight="700" fill="#06b6d4" stroke="#ffffff" stroke-width="3.5" paint-order="stroke fill">29</text>
<circle cx="2198.0" cy="6816.0" r="3.1" fill="#ffffff" stroke="#111827" stroke-width="1.5"/>
<circle cx="2140.0" cy="6807.0" r="2.4" fill="#2563eb" opacity="0.72"/>
<circle cx="2140.0" cy="6807.0" r="2.4" fill="#2563eb" opacity="0.72"/>
<text x="2147.2" y="6805.4" text-anchor="middle" font-size="10" font-weight="700" fill="#3b82f6" stroke="#ffffff" stroke-width="3.5" paint-order="stroke fill">30</text>
<circle cx="2140.0" cy="6841.0" r="3.1" fill="#ffffff" stroke="#111827" stroke-width="1.5"/>
<circle cx="2141.0" cy="6860.0" r="2.4" fill="#2563eb" opacity="0.72"/>
<circle cx="2149.0" cy="6923.0" r="2.4" fill="#2563eb" opacity="0.72"/>
<text x="2146.1" y="6889.6" text-anchor="middle" font-size="10" font-weight="700" fill="#8b5cf6" stroke="#ffffff" stroke-width="3.5" paint-order="stroke fill">31</text>
<circle cx="2159.0" cy="6983.0" r="3.1" fill="#ffffff" stroke="#111827" stroke-width="1.5"/>
<text x="2167.5" y="7029.5" text-anchor="middle" font-size="10" font-weight="700" fill="#dc2626" stroke="#ffffff" stroke-width="3.5" paint-order="stroke fill">32</text>
<circle cx="2176.0" cy="7090.0" r="3.1" fill="#ffffff" stroke="#111827" stroke-width="1.5"/>
<text x="2043.0" y="7083.0" text-anchor="middle" font-size="10" font-weight="700" fill="#ef4444" stroke="#ffffff" stroke-width="3.5" paint-order="stroke fill">33</text>
<circle cx="1910.0" cy="7090.0" r="3.1" fill="#ffffff" stroke="#111827" stroke-width="1.5"/>
<text x="1776.5" y="7083.0" text-anchor="middle" font-size="10" font-weight="700" fill="#dc2626" stroke="#ffffff" stroke-width="3.5" paint-order="stroke fill">34</text>
<circle cx="1643.0" cy="7090.0" r="3.1" fill="#ffffff" stroke="#111827" stroke-width="1.5"/>
<text x="1640.0" y="7027.0" text-anchor="middle" font-size="10" font-weight="700" fill="#eab308" stroke="#ffffff" stroke-width="3.5" paint-order="stroke fill">35</text>
</g>
<g font-family="Arial, Helvetica, sans-serif" fill="#111827">
<rect x="18" y="16" width="430" height="82" rx="8" fill="#ffffff" opacity="0.90" stroke="#cbd5e1"/>
<text x="34" y="42" font-size="14" font-weight="700">Path audit: 31 cubic segments (no fixed budget)</text>
<text x="34" y="64" font-size="12" fill="#475569">Join warnings: 3; short segments: 4</text>
<text x="34" y="84" font-size="12" fill="#475569">Colored curves = segments; blue dots/gray lines = Bezier handles</text>
</g>
</svg>
