<?xml version="1.0" standalone="no"?>
<!DOCTYPE svg PUBLIC "-//W3C//DTD SVG 20010904//EN"
 "http://www.w3.org/TR/2001/REC-SVG-20010904/DTD/svg10.dtd">
<svg version="1.0" xmlns="http://www.w3.org/2000/svg"
 width="1254.000000pt" height="1254.000000pt" viewBox="0 0 1254.000000 1254.000000"
 preserveAspectRatio="xMidYMid meet">
<metadata>
Created by potrace 1.16, written by Peter Selinger 2001-2019
</metadata>
<g transform="translate(0.000000,1254.000000) scale(0.200000,-0.200000)"
fill="#000000" stroke="none">
<path d="M824 3539 c-6 -11 -13 -86 -14 -165 0 -50 -1 -51 -52 -84 -144 -93
-248 -234 -303 -410 -23 -72 -29 -291 -10 -376 66 -311 268 -534 562 -619 173
-51 296 -37 357 38 l31 39 0 678 c0 669 0 679 -21 707 -11 15 -40 38 -65 51
-40 21 -53 23 -141 18 l-98 -5 6 52 c3 29 7 60 10 69 4 15 -8 17 -125 17 -75
0 -133 -5 -137 -10z"/>
</g>
</svg>
