<?xml version="1.0" standalone="no"?>
<!DOCTYPE svg PUBLIC "-//W3C//DTD SVG 20010904//EN"
 "http://www.w3.org/TR/2001/REC-SVG-20010904/DTD/svg10.dtd">
<svg version="1.0" xmlns="http://www.w3.org/2000/svg"
 width="1254.000000pt" height="1254.000000pt" viewBox="0 0 1254.000000 1254.000000"
 preserveAspectRatio="xMidYMid meet">
<metadata>
Created by potrace 1.16, written by Peter Selinger 2001-2019
</metadata>
<g transform="translate(0.000000,1254.000000) scale(0.249801,-0.249801)"
fill="#000000" stroke="none">
<path d="M2675 3159 c-275 -64 -484 -218 -594 -442 -70 -141 -91 -237 -90
-402 1 -109 3 -123 11 -85 23 111 62 213 109 283 122 186 325 307 516 307 127
0 228 -36 339 -121 58 -45 68 -49 118 -49 43 0 69 7 122 35 l67 35 -6 -48 c-4
-26 -24 -82 -46 -126 l-40 -78 23 -47 c72 -142 102 -292 93 -460 -12 -212 -98
-392 -274 -568 -178 -178 -386 -285 -628 -321 -39 -5 -20 -8 84 -10 154 -3
255 12 389 60 180 63 329 156 461 287 236 234 361 529 361 852 0 260 -78 471
-235 637 -84 90 -167 150 -269 198 -119 55 -211 74 -351 73 -66 -1 -138 -5
-160 -10z"/>
</g>
</svg>
