<svg xmlns="http://www.w3.org/2000/svg" width="1254" height="1254" viewBox="0 0 1254 1254">
<rect width="100%" height="100%" fill="#ffffff"/>
<path d="M1416 2661 c-89 -198 -109 -493 -50 -723 79 -310 359 -611 671 -721 88 -32 217 -57 290 -57 75 0 195 26 280 62 211 87 382 285 440 508 24 94 22 263 -5 363 -79 290 -265 424 -539 387 -47 -6 -104 -18 -126 -27 -41 -17 -41 -17 14 -28 107 -21 200 -99 259 -215 173 -343 -103 -718 -475 -647 -171 32 -334 118 -458 240 -136 135 -226 313 -272 542 -13 65 -17 252 -6 309 6 33 9 61 7 63 -2 2 -15 -23 -30 -56z" fill="#111111" opacity="0.16"/>
<g fill="none" stroke-linecap="round" stroke-linejoin="round">
<path d="M 1416.0 2661.0 C 1327.0 2463.0, 1307.0 2168.0, 1366.0 1938.0" stroke="#ef4444" stroke-width="4.5"/>
<path d="M 1366.0 1938.0 C 1445.0 1628.0, 1725.0 1327.0, 2037.0 1217.0" stroke="#f97316" stroke-width="4.5"/>
<path d="M 2037.0 1217.0 C 2125.0 1185.0, 2254.0 1160.0, 2327.0 1160.0" stroke="#eab308" stroke-width="4.5"/>
<path d="M 2327.0 1160.0 C 2402.0 1160.0, 2522.0 1186.0, 2607.0 1222.0" stroke="#22c55e" stroke-width="4.5"/>
<path d="M 2607.0 1222.0 C 2818.0 1309.0, 2989.0 1507.0, 3047.0 1730.0" stroke="#06b6d4" stroke-width="4.5"/>
<path d="M 3047.0 1730.0 C 3071.0 1824.0, 3069.0 1993.0, 3042.0 2093.0" stroke="#3b82f6" stroke-width="4.5"/>
<path d="M 3042.0 2093.0 C 2963.0 2383.0, 2777.0 2517.0, 2503.0 2480.0" stroke="#8b5cf6" stroke-width="4.5"/>
<path d="M 2503.0 2480.0 C 2456.0 2474.0, 2399.0 2462.0, 2377.0 2453.0" stroke="#ec4899" stroke-width="4.5"/>
<path d="M 2377.0 2453.0 C 2336.0 2436.0, 2336.0 2436.0, 2391.0 2425.0" stroke="#ef4444" stroke-width="4.5"/>
<path d="M 2391.0 2425.0 C 2498.0 2404.0, 2591.0 2326.0, 2650.0 2210.0" stroke="#f97316" stroke-width="4.5"/>
<path d="M 2650.0 2210.0 C 2823.0 1867.0, 2547.0 1492.0, 2175.0 1563.0" stroke="#eab308" stroke-width="4.5"/>
<path d="M 2175.0 1563.0 C 2004.0 1595.0, 1841.0 1681.0, 1717.0 1803.0" stroke="#22c55e" stroke-width="4.5"/>
<path d="M 1717.0 1803.0 C 1581.0 1938.0, 1491.0 2116.0, 1445.0 2345.0" stroke="#06b6d4" stroke-width="4.5"/>
<path d="M 1445.0 2345.0 C 1432.0 2410.0, 1428.0 2597.0, 1439.0 2654.0" stroke="#3b82f6" stroke-width="4.5"/>
<path d="M 1439.0 2654.0 C 1445.0 2687.0, 1448.0 2715.0, 1446.0 2717.0" stroke="#8b5cf6" stroke-width="4.5"/>
<path d="M 1446.0 2717.0 C 1444.0 2719.0, 1431.0 2694.0, 1416.0 2661.0" stroke="#ec4899" stroke-width="4.5"/>
</g>
<g stroke="#64748b" stroke-width="1.2" stroke-dasharray="5 5" opacity="0.58">
<path d="M 1416.0 2661.0 L 1327.0 2463.0 M 1366.0 1938.0 L 1307.0 2168.0"/>
<path d="M 1366.0 1938.0 L 1445.0 1628.0 M 2037.0 1217.0 L 1725.0 1327.0"/>
<path d="M 2037.0 1217.0 L 2125.0 1185.0 M 2327.0 1160.0 L 2254.0 1160.0"/>
<path d="M 2327.0 1160.0 L 2402.0 1160.0 M 2607.0 1222.0 L 2522.0 1186.0"/>
<path d="M 2607.0 1222.0 L 2818.0 1309.0 M 3047.0 1730.0 L 2989.0 1507.0"/>
<path d="M 3047.0 1730.0 L 3071.0 1824.0 M 3042.0 2093.0 L 3069.0 1993.0"/>
<path d="M 3042.0 2093.0 L 2963.0 2383.0 M 2503.0 2480.0 L 2777.0 2517.0"/>
<path d="M 2503.0 2480.0 L 2456.0 2474.0 M 2377.0 2453.0 L 2399.0 2462.0"/>
<path d="M 2377.0 2453.0 L 2336.0 2436.0 M 2391.0 2425.0 L 2336.0 2436.0"/>
<path d="M 2391.0 2425.0 L 2498.0 2404.0 M 2650.0 2210.0 L 2591.0 2326.0"/>
<path d="M 2650.0 2210.0 L 2823.0 1867.0 M 2175.0 1563.0 L 2547.0 1492.0"/>
<path d="M 2175.0 1563.0 L 2004.0 1595.0 M 1717.0 1803.0 L 1841.0 1681.0"/>
<path d="M 1717.0 1803.0 L 1581.0 1938.0 M 1445.0 2345.0 L 1491.0 2116.0"/>
<path d="M 1445.0 2345.0 L 1432.0 2410.0 M 1439.0 2654.0 L 1428.0 2597.0"/>
<path d="M 1439.0 2654.0 L 1445.0 2687.0 M 1446.0 2717.0 L 1448.0 2715.0"/>
<path d="M 1446.0 2717.0 L 1444.0 2719.0 M 1416.0 2661.0 L 1431.0 2694.0"/>
</g>
<g font-family="Arial, Helvetica, sans-serif">
<circle cx="1416.0" cy="2661.0" r="3.1" fill="#ffffff" stroke="#111827" stroke-width="1.5"/>
<circle cx="1327.0" cy="2463.0" r="2.4" fill="#2563eb" opacity="0.72"/>
<circle cx="1307.0" cy="2168.0" r="2.4" fill="#2563eb" opacity="0.72"/>
<text x="1335.5" y="2304.5" text-anchor="middle" font-size="10" font-weight="700" fill="#ef4444" stroke="#ffffff" stroke-width="3.5" paint-order="stroke fill">1</text>
<circle cx="1366.0" cy="1938.0" r="3.1" fill="#ffffff" stroke="#111827" stroke-width="1.5"/>
<circle cx="1445.0" cy="1628.0" r="2.4" fill="#2563eb" opacity="0.72"/>
<circle cx="1725.0" cy="1327.0" r="2.4" fill="#2563eb" opacity="0.72"/>
<text x="1614.1" y="1495.5" text-anchor="middle" font-size="10" font-weight="700" fill="#f97316" stroke="#ffffff" stroke-width="3.5" paint-order="stroke fill">2</text>
<circle cx="2037.0" cy="1217.0" r="3.1" fill="#ffffff" stroke="#111827" stroke-width="1.5"/>
<circle cx="2125.0" cy="1185.0" r="2.4" fill="#2563eb" opacity="0.72"/>
<circle cx="2254.0" cy="1160.0" r="2.4" fill="#2563eb" opacity="0.72"/>
<text x="2187.6" y="1169.5" text-anchor="middle" font-size="10" font-weight="700" fill="#eab308" stroke="#ffffff" stroke-width="3.5" paint-order="stroke fill">3</text>
<circle cx="2327.0" cy="1160.0" r="3.1" fill="#ffffff" stroke="#111827" stroke-width="1.5"/>
<circle cx="2402.0" cy="1160.0" r="2.4" fill="#2563eb" opacity="0.72"/>
<circle cx="2522.0" cy="1186.0" r="2.4" fill="#2563eb" opacity="0.72"/>
<text x="2463.2" y="1170.5" text-anchor="middle" font-size="10" font-weight="700" fill="#22c55e" stroke="#ffffff" stroke-width="3.5" paint-order="stroke fill">4</text>
<circle cx="2607.0" cy="1222.0" r="3.1" fill="#ffffff" stroke="#111827" stroke-width="1.5"/>
<circle cx="2818.0" cy="1309.0" r="2.4" fill="#2563eb" opacity="0.72"/>
<circle cx="2989.0" cy="1507.0" r="2.4" fill="#2563eb" opacity="0.72"/>
<text x="2884.4" y="1418.0" text-anchor="middle" font-size="10" font-weight="700" fill="#06b6d4" stroke="#ffffff" stroke-width="3.5" paint-order="stroke fill">5</text>
<circle cx="3047.0" cy="1730.0" r="3.1" fill="#ffffff" stroke="#111827" stroke-width="1.5"/>
<circle cx="3071.0" cy="1824.0" r="2.4" fill="#2563eb" opacity="0.72"/>
<circle cx="3069.0" cy="1993.0" r="2.4" fill="#2563eb" opacity="0.72"/>
<text x="3063.6" y="1902.2" text-anchor="middle" font-size="10" font-weight="700" fill="#3b82f6" stroke="#ffffff" stroke-width="3.5" paint-order="stroke fill">6</text>
<circle cx="3042.0" cy="2093.0" r="3.1" fill="#ffffff" stroke="#111827" stroke-width="1.5"/>
<circle cx="2963.0" cy="2383.0" r="2.4" fill="#2563eb" opacity="0.72"/>
<circle cx="2777.0" cy="2517.0" r="2.4" fill="#2563eb" opacity="0.72"/>
<text x="2845.6" y="2402.1" text-anchor="middle" font-size="10" font-weight="700" fill="#8b5cf6" stroke="#ffffff" stroke-width="3.5" paint-order="stroke fill">7</text>
<circle cx="2503.0" cy="2480.0" r="3.1" fill="#ffffff" stroke="#111827" stroke-width="1.5"/>
<circle cx="2456.0" cy="2474.0" r="2.4" fill="#2563eb" opacity="0.72"/>
<circle cx="2399.0" cy="2462.0" r="2.4" fill="#2563eb" opacity="0.72"/>
<text x="2430.6" y="2460.6" text-anchor="middle" font-size="10" font-weight="700" fill="#ec4899" stroke="#ffffff" stroke-width="3.5" paint-order="stroke fill">8</text>
<circle cx="2377.0" cy="2453.0" r="3.1" fill="#ffffff" stroke="#111827" stroke-width="1.5"/>
<circle cx="2336.0" cy="2436.0" r="2.4" fill="#2563eb" opacity="0.72"/>
<circle cx="2336.0" cy="2436.0" r="2.4" fill="#2563eb" opacity="0.72"/>
<text x="2348.0" y="2429.8" text-anchor="middle" font-size="10" font-weight="700" fill="#dc2626" stroke="#ffffff" stroke-width="3.5" paint-order="stroke fill">9</text>
<circle cx="2391.0" cy="2425.0" r="3.1" fill="#ffffff" stroke="#111827" stroke-width="1.5"/>
<circle cx="2498.0" cy="2404.0" r="2.4" fill="#2563eb" opacity="0.72"/>
<circle cx="2591.0" cy="2326.0" r="2.4" fill="#2563eb" opacity="0.72"/>
<text x="2538.5" y="2346.1" text-anchor="middle" font-size="10" font-weight="700" fill="#f97316" stroke="#ffffff" stroke-width="3.5" paint-order="stroke fill">10</text>
<circle cx="2650.0" cy="2210.0" r="3.1" fill="#ffffff" stroke="#111827" stroke-width="1.5"/>
<circle cx="2823.0" cy="1867.0" r="2.4" fill="#2563eb" opacity="0.72"/>
<circle cx="2547.0" cy="1492.0" r="2.4" fill="#2563eb" opacity="0.72"/>
<text x="2616.9" y="1724.2" text-anchor="middle" font-size="10" font-weight="700" fill="#eab308" stroke="#ffffff" stroke-width="3.5" paint-order="stroke fill">11</text>
<circle cx="2175.0" cy="1563.0" r="3.1" fill="#ffffff" stroke="#111827" stroke-width="1.5"/>
<circle cx="2004.0" cy="1595.0" r="2.4" fill="#2563eb" opacity="0.72"/>
<circle cx="1841.0" cy="1681.0" r="2.4" fill="#2563eb" opacity="0.72"/>
<text x="1928.4" y="1642.2" text-anchor="middle" font-size="10" font-weight="700" fill="#22c55e" stroke="#ffffff" stroke-width="3.5" paint-order="stroke fill">12</text>
<circle cx="1717.0" cy="1803.0" r="3.1" fill="#ffffff" stroke="#111827" stroke-width="1.5"/>
<circle cx="1581.0" cy="1938.0" r="2.4" fill="#2563eb" opacity="0.72"/>
<circle cx="1491.0" cy="2116.0" r="2.4" fill="#2563eb" opacity="0.72"/>
<text x="1547.2" y="2031.8" text-anchor="middle" font-size="10" font-weight="700" fill="#06b6d4" stroke="#ffffff" stroke-width="3.5" paint-order="stroke fill">13</text>
<circle cx="1445.0" cy="2345.0" r="3.1" fill="#ffffff" stroke="#111827" stroke-width="1.5"/>
<circle cx="1432.0" cy="2410.0" r="2.4" fill="#2563eb" opacity="0.72"/>
<circle cx="1428.0" cy="2597.0" r="2.4" fill="#2563eb" opacity="0.72"/>
<text x="1433.0" y="2495.5" text-anchor="middle" font-size="10" font-weight="700" fill="#3b82f6" stroke="#ffffff" stroke-width="3.5" paint-order="stroke fill">14</text>
<circle cx="1439.0" cy="2654.0" r="3.1" fill="#ffffff" stroke="#111827" stroke-width="1.5"/>
<circle cx="1445.0" cy="2687.0" r="2.4" fill="#2563eb" opacity="0.72"/>
<circle cx="1448.0" cy="2715.0" r="2.4" fill="#2563eb" opacity="0.72"/>
<text x="1445.5" y="2690.1" text-anchor="middle" font-size="10" font-weight="700" fill="#dc2626" stroke="#ffffff" stroke-width="3.5" paint-order="stroke fill">15</text>
<circle cx="1446.0" cy="2717.0" r="3.1" fill="#ffffff" stroke="#111827" stroke-width="1.5"/>
<circle cx="1444.0" cy="2719.0" r="2.4" fill="#2563eb" opacity="0.72"/>
<circle cx="1431.0" cy="2694.0" r="2.4" fill="#2563eb" opacity="0.72"/>
<text x="1435.9" y="2695.1" text-anchor="middle" font-size="10" font-weight="700" fill="#dc2626" stroke="#ffffff" stroke-width="3.5" paint-order="stroke fill">16</text>
</g>
<g font-family="Arial, Helvetica, sans-serif" fill="#111827">
<rect x="18" y="16" width="430" height="82" rx="8" fill="#ffffff" opacity="0.90" stroke="#cbd5e1"/>
<text x="34" y="42" font-size="14" font-weight="700">Path audit: 16 cubic segments (within chosen budget)</text>
<text x="34" y="64" font-size="12" fill="#475569">Join warnings: 0; short segments: 3</text>
<text x="34" y="84" font-size="12" fill="#475569">Colored curves = segments; blue dots/gray lines = Bezier handles</text>
</g>
</svg>
