<svg xmlns="http://www.w3.org/2000/svg" width="1254" height="1254" viewBox="0 0 1254 1254" role="img" aria-labelledby="logo-title logo-desc">
  <title id="logo-title">曹二听说101 application icon</title>
  <desc id="logo-desc">Blue headphones surrounding three warm-color spirals and a green leaf.</desc>
  <rect id="icon-tile" x="0" y="0" width="1254" height="1254" rx="214" fill="#fdfcfc"/>
  <g id="logo-lockup">
    <g id="headphones">
      <g id="headphone-arch">
        <path d="M5877 11180 c-136 -12 -380 -51 -557 -91 -183 -40 -427 -104 -530 -138 -99 -33 -362 -132 -435 -163 -104 -45 -455 -227 -564 -293 -146 -88 -290 -189 -472 -331 l-146 -115 -165 -162 c-91 -89 -205 -205 -253 -257 -48 -52 -137 -162 -199 -245 -266 -354 -440 -650 -596 -1014 -32 -77 -84 -213 -114 -303 -30 -90 -72 -235 -94 -323 -73 -295 -109 -558 -119 -890 l-6 -211 -49 -24 c-28 -14 -52 -28 -54 -32 -3 -5 281 -8 630 -8 l635 0 -14 45 c-7 25 -25 62 -40 81 -15 20 -45 49 -68 65 -22 16 -65 37 -95 45 l-53 16 -142 -6 c-78 -3 -163 -8 -190 -12 l-47 -6 0 30 c0 49 56 367 89 502 70 291 164 554 301 837 96 198 166 322 273 483 94 141 177 248 319 411 65 75 118 140 118 145 0 13 173 184 186 184 6 0 58 45 115 100 57 55 108 100 113 100 12 0 136 94 162 122 12 13 35 30 50 38 16 8 61 35 99 61 114 75 278 167 419 234 168 79 399 173 541 218 188 61 509 133 725 163 l115 16 400 5 400 5 153 -16 c194 -21 409 -57 570 -97 148 -36 424 -124 567 -181 143 -57 422 -194 545 -268 144 -86 278 -180 385 -270 50 -41 123 -101 164 -134 96 -77 255 -236 363 -361 47 -55 130 -161 185 -235 152 -204 297 -439 404 -651 150 -300 263 -604 339 -913 36 -146 68 -318 85 -453 l7 -51 -179 -4 -178 -4 -52 -23 -53 -23 -41 -45 c-38 -42 -78 -113 -79 -140 l0 -13 643 1 642 0 -82 40 -82 39 -9 33 c-6 17 -13 120 -16 227 l-5 195 -21 154 c-11 85 -29 200 -41 255 -31 155 -94 391 -144 543 -25 75 -66 188 -91 252 -25 64 -85 197 -134 296 -90 183 -203 378 -312 540 -81 120 -209 289 -310 411 -104 124 -350 370 -499 498 -147 127 -340 272 -504 378 -135 88 -316 193 -420 245 -33 17 -157 74 -275 126 l-215 96 -125 36 c-69 20 -197 58 -285 85 l-160 49 -210 35 c-115 19 -271 42 -345 51 l-135 17 -315 3 c-173 2 -364 -1 -423 -5z" transform="translate(0.000000,1254.000000) scale(0.100000,-0.100000)" fill="#0256bf"/>
      </g>
      <g id="earcup-left">
        <path d="M1637 6978 c-4 -62 -7 -162 -7 -223 l-1 -110 -47 -24 c-72 -36 -140 -83 -220 -153 -81 -71 -201 -209 -268 -309 -60 -91 -120 -215 -153 -318 l-28 -86 5 -42 4 -43 -10 0 c-6 0 -13 6 -15 13 -3 6 -6 -2 -6 -19 -1 -17 -11 -60 -23 -95 l-21 -64 -1 -130 0 -130 17 -110 c20 -120 29 -157 88 -347 22 -71 44 -128 49 -128 6 0 10 -7 10 -16 0 -24 99 -196 172 -299 35 -49 104 -130 153 -179 50 -50 133 -121 185 -159 109 -77 320 -185 431 -221 41 -13 113 -32 160 -42 l84 -19 170 0 170 0 56 23 c30 12 74 38 97 57 l41 36 28 57 28 57 3 1309 2 1310 -15 51 -15 52 -40 46 -41 46 -57 28 -57 28 -155 0 c-85 -1 -181 -5 -212 -9 l-58 -9 0 34 c1 19 9 82 19 142 l17 107 -266 0 -267 0 -6 -112z" transform="translate(0.000000,1254.000000) scale(0.100000,-0.100000)" fill="#0256bf"/>
      </g>
      <g id="earcup-right">
        <path d="M10305 7018 c7 -40 16 -98 19 -130 l7 -56 -178 -4 -178 -4 -52 -23 -53 -23 -41 -45 c-22 -24 -51 -66 -62 -91 l-22 -47 0 -1295 0 -1295 33 -70 c18 -38 45 -83 60 -98 35 -38 107 -87 126 -87 8 0 18 -5 21 -10 7 -11 -78 -167 -130 -240 -17 -25 -35 -51 -39 -57 l-7 -13 234 0 234 0 31 68 c17 37 47 104 67 148 l37 82 24 11 c14 6 36 11 49 11 35 0 186 55 303 110 57 27 147 80 200 117 53 37 146 115 206 173 59 58 137 143 172 189 35 47 78 114 95 150 18 36 54 110 80 164 27 54 60 137 74 185 14 48 33 128 42 177 l17 90 1 245 0 245 -19 85 c-25 115 -79 269 -129 364 -22 44 -66 115 -98 159 -66 93 -193 224 -299 309 l-74 61 -92 43 -92 44 -11 32 -11 31 0 131 c0 72 -3 155 -6 184 l-7 52 -272 0 -272 0 12 -72z" transform="translate(0.000000,1254.000000) scale(0.100000,-0.100000)" fill="#0256bf"/>
      </g>
      <g id="boom">
        <path d="M9742 4323 l3 -318 33 -70 c18 -38 45 -83 60 -98 35 -38 107 -87 126 -87 8 0 18 -4 21 -10 3 -5 -11 -40 -31 -77 -53 -96 -174 -279 -234 -354 -65 -81 -254 -275 -350 -360 -41 -36 -104 -88 -140 -115 -88 -69 -255 -179 -365 -241 -121 -69 -340 -165 -486 -213 -66 -22 -193 -55 -284 -75 -90 -19 -167 -35 -172 -35 -5 0 -15 16 -22 35 l-12 34 -52 46 c-29 25 -74 56 -102 69 -27 13 -72 29 -100 36 l-50 12 -422 -1 -422 -2 -53 -15 c-29 -9 -71 -26 -93 -39 -22 -13 -64 -48 -93 -79 -29 -31 -65 -82 -80 -113 l-27 -58 1 -95 1 -95 17 -45 c9 -25 31 -69 49 -98 l32 -53 53 -41 c30 -22 75 -50 100 -61 l47 -22 475 0 475 0 51 19 c28 10 68 31 90 45 21 15 56 52 77 84 l37 56 38 10 c20 5 98 17 174 26 75 9 187 29 250 45 159 40 342 103 488 167 146 65 335 169 472 259 124 82 280 206 302 238 9 15 22 26 30 26 18 0 243 233 348 361 48 59 117 151 154 205 65 98 143 246 217 415 l38 86 25 12 c14 6 36 11 49 11 35 0 186 55 303 110 57 27 147 80 200 117 53 37 146 115 206 173 59 58 137 143 172 190 35 46 86 131 114 187 27 57 50 106 50 108 0 3 -403 5 -896 5 l-895 0 3 -317z" transform="translate(0.000000,1254.000000) scale(0.100000,-0.100000)" fill="#0256bf"/>
      </g>
    </g>
    <g id="listening-mark">
      <g id="gold-sweep">
        <path d="M6870 7915 c-63 -8 -163 -24 -222 -35 -116 -22 -326 -90 -453 -147 -173 -78 -376 -205 -525 -328 -41 -35 -102 -91 -136 -126 -87 -92 -173 -204 -240 -311 -31 -51 -83 -147 -115 -213 -61 -127 -139 -341 -139 -382 0 -13 -7 -37 -14 -52 -8 -15 -18 -52 -22 -82 -4 -30 -13 -71 -20 -93 l-14 -39 0 -261 c0 -143 3 -285 6 -313 4 -29 11 -53 15 -53 5 0 9 15 9 33 0 36 34 250 48 299 5 18 32 92 61 163 55 140 140 292 236 420 115 155 344 358 522 464 37 22 114 59 171 81 116 47 251 83 366 99 43 6 118 11 168 11 50 0 138 -7 195 -16 58 -8 153 -31 211 -50 57 -19 143 -54 191 -79 104 -55 238 -150 318 -225 l58 -55 85 -3 85 -4 71 15 c40 9 105 29 145 45 41 16 109 50 152 75 l77 46 0 -60 c0 -33 -7 -94 -16 -137 -9 -42 -31 -114 -49 -159 -18 -45 -58 -121 -90 -169 -31 -48 -57 -94 -58 -103 0 -10 21 -51 47 -93 26 -43 62 -112 80 -155 65 -153 127 -389 151 -572 l15 -115 1 -205 c1 -113 -2 -228 -6 -256 -12 -91 -46 -259 -67 -330 -25 -87 -111 -282 -173 -394 -63 -114 -149 -240 -232 -341 -92 -112 -96 -117 -241 -263 -187 -189 -391 -343 -618 -465 -208 -112 -410 -195 -569 -236 -102 -25 -251 -49 -384 -62 l-73 -7 15 -8 c25 -15 194 -29 342 -29 77 0 192 5 255 10 159 14 383 55 520 97 63 19 178 59 255 90 151 59 415 195 572 294 54 34 139 92 190 130 50 38 140 114 200 168 59 54 153 149 208 212 55 62 143 171 196 241 52 70 130 185 172 256 122 204 225 435 286 639 45 151 78 310 103 493 l22 165 0 245 1 245 -24 130 c-30 172 -80 363 -130 504 -23 63 -64 157 -92 210 -136 255 -297 460 -494 629 -60 52 -162 129 -225 171 -63 42 -164 102 -225 133 -195 100 -378 160 -617 204 l-83 15 -170 4 -170 4 -115 -14z" transform="translate(0.000000,1254.000000) scale(0.100000,-0.100000)" fill="#fda616"/>
      </g>
      <g id="orange-sweep">
        <path d="M6075 8664 c-260 -36 -507 -93 -710 -165 -144 -51 -434 -195 -564 -279 -129 -84 -310 -230 -415 -337 -97 -98 -242 -284 -304 -389 -70 -121 -148 -286 -191 -403 -23 -63 -55 -164 -71 -226 -16 -62 -37 -166 -46 -231 l-17 -119 0 -200 0 -200 17 -125 c9 -69 28 -177 42 -240 14 -63 47 -180 73 -260 74 -222 162 -407 289 -604 102 -160 226 -305 361 -423 47 -41 133 -107 191 -145 57 -39 163 -99 235 -133 71 -35 177 -78 234 -94 l104 -31 81 0 c44 0 92 -3 106 -7 l25 -7 -25 -7 c-14 -4 54 -6 150 -4 l175 4 85 19 c166 39 264 81 375 163 72 52 186 177 250 274 30 45 69 113 86 151 17 38 44 120 60 183 l29 113 0 72 -1 71 -9 -16 c-5 -9 -21 -49 -36 -90 -47 -133 -125 -253 -228 -353 -34 -33 -92 -79 -131 -104 -38 -25 -102 -58 -142 -73 -39 -15 -105 -35 -147 -43 -41 -9 -114 -16 -161 -16 l-86 0 -72 16 c-40 9 -94 28 -122 42 -69 34 -190 117 -242 165 -24 22 -68 72 -98 112 -63 84 -144 222 -185 315 -34 77 -91 268 -119 395 -10 50 -25 133 -32 185 l-13 95 1 190 0 190 17 110 c9 61 26 151 38 200 11 50 39 141 61 204 22 63 73 180 113 260 75 152 173 306 269 426 98 122 213 242 313 326 108 90 278 206 392 267 115 62 280 129 409 167 65 19 162 42 217 50 54 8 171 18 259 21 l160 6 105 -11 c105 -11 317 -54 441 -90 267 -77 547 -217 761 -380 48 -36 68 -43 68 -22 0 12 -332 317 -435 400 -49 40 -157 118 -239 172 l-148 99 -172 84 c-94 46 -214 100 -266 119 -140 52 -338 104 -506 133 l-149 27 -240 2 c-132 2 -253 1 -270 -1z" transform="translate(0.000000,1254.000000) scale(0.100000,-0.100000)" fill="#fd5108"/>
      </g>
      <g id="red-sweep">
        <path d="M3558 6693 c-48 -103 -114 -294 -147 -428 -31 -124 -59 -309 -72 -478 l-12 -152 6 -200 6 -200 20 -130 c11 -71 32 -175 46 -230 37 -140 116 -347 191 -501 71 -143 204 -351 310 -484 89 -110 263 -284 389 -389 108 -89 242 -186 348 -251 109 -66 276 -147 400 -194 64 -24 170 -58 234 -75 65 -17 174 -38 243 -47 l125 -16 160 0 160 0 135 20 135 20 135 45 c137 45 284 113 407 188 94 58 205 140 292 218 87 77 207 219 284 335 74 112 143 244 151 287 4 21 16 49 27 63 11 14 23 43 26 63 3 21 16 61 29 88 13 28 31 93 41 145 l18 95 0 280 -1 280 -22 104 c-13 57 -39 151 -58 210 -20 58 -60 156 -90 216 l-53 110 -67 88 c-36 48 -89 111 -117 138 -29 28 -97 81 -153 118 l-101 66 -104 34 c-57 19 -113 38 -124 42 -41 17 -181 29 -328 29 -84 0 -191 -5 -237 -11 -98 -12 -298 -71 -331 -98 l-22 -18 89 -6 c49 -4 109 -13 134 -21 81 -25 159 -64 237 -118 l77 -53 64 -75 c35 -41 86 -109 114 -150 27 -41 66 -111 87 -155 46 -95 85 -214 102 -310 l13 -70 -1 -145 c0 -80 -5 -166 -12 -192 -6 -27 -15 -68 -21 -92 -15 -71 -66 -195 -114 -276 -24 -41 -70 -106 -103 -145 -32 -38 -99 -103 -148 -143 l-90 -73 -110 -54 -110 -54 -105 -27 -105 -26 -101 -5 -100 -6 -120 13 -119 12 -130 33 c-71 18 -166 47 -210 65 -116 45 -332 153 -390 195 -27 19 -77 54 -110 76 -33 22 -115 88 -183 147 l-123 107 -104 126 c-58 70 -134 173 -171 230 -36 57 -97 167 -134 244 -38 77 -89 196 -113 265 -55 152 -99 317 -126 465 -11 61 -25 175 -31 255 l-13 145 6 106 c7 114 19 207 43 333 l16 78 -9 9 -10 10 -45 -98z" transform="translate(0.000000,1254.000000) scale(0.100000,-0.100000)" fill="#ef2218"/>
      </g>
      <g id="leaf">
        <path d="M7928 6554 c-31 -13 -89 -31 -128 -39 l-71 -15 -172 0 c-95 0 -198 -4 -230 -10 -32 -5 -80 -19 -108 -32 -27 -13 -99 -63 -159 -113 -60 -49 -109 -93 -110 -97 0 -5 83 -8 185 -8 l186 0 77 16 c42 8 104 27 137 41 33 13 72 30 87 36 15 6 30 8 34 4 4 -4 -10 -26 -32 -48 -38 -39 -136 -101 -202 -128 l-32 -14 -163 5 -162 4 -22 12 -22 12 -138 -1 -138 0 20 -8 c49 -20 192 -63 216 -65 38 -4 192 -58 206 -72 21 -21 154 -46 238 -45 l80 0 41 14 c110 40 200 106 273 203 59 77 142 236 165 313 9 30 16 56 16 58 0 6 -14 1 -72 -23z" transform="translate(0.000000,1254.000000) scale(0.100000,-0.100000)" fill="#0a9422"/>
      </g>
    </g>
  </g>
</svg>
