<?xml version="1.0" standalone="no"?>
<!DOCTYPE svg PUBLIC "-//W3C//DTD SVG 20010904//EN"
 "http://www.w3.org/TR/2001/REC-SVG-20010904/DTD/svg10.dtd">
<svg version="1.0" xmlns="http://www.w3.org/2000/svg"
 width="1254.000000pt" height="1254.000000pt" viewBox="0 0 1254.000000 1254.000000"
 preserveAspectRatio="xMidYMid meet">
<metadata>
Created by potrace 1.16, written by Peter Selinger 2001-2019
</metadata>
<g transform="translate(0.000000,1254.000000) scale(0.100000,-0.100000)"
fill="#000000" stroke="none">
<path d="M10305 7018 c7 -40 16 -98 19 -130 l7 -56 -178 -4 c-160 -3 -183 -6
-230 -27 -61 -27 -126 -93 -156 -159 l-22 -47 0 -1295 0 -1295 33 -70 c18 -38
45 -83 60 -98 35 -38 107 -87 126 -87 8 0 18 -5 21 -10 7 -11 -78 -167 -130
-240 -17 -25 -35 -51 -39 -57 -6 -10 42 -13 227 -13 l234 0 31 68 c17 37 47
104 67 148 38 84 59 104 110 104 76 0 363 129 503 227 185 128 399 360 473
512 18 36 54 110 80 164 53 107 90 221 116 362 26 135 25 548 -1 665 -25 115
-79 269 -129 364 -119 231 -361 476 -563 572 -112 54 -114 57 -114 238 0 72
-3 155 -6 184 l-7 52 -272 0 -272 0 12 -72z"/>
</g>
</svg>
